<svg data-v-0dd9719b="" version="1.0" xmlns="http://www.w3.org/2000/svg" xmlns:xlink="http://www.w3.org/1999/xlink" width="100%" height="100%" viewBox="0 0 340.000000 250.000000" preserveAspectRatio="xMidYMid meet" color-interpolation-filters="sRGB" style="margin: auto;"> <rect data-v-0dd9719b="" x="0" y="0" width="100%" height="100%" fill="#fff" fill-opacity="1" class="background"></rect> <rect data-v-0dd9719b="" x="0" y="0" width="100%" height="100%" fill="url(#watermark)" fill-opacity="1" class="watermarklayer"></rect> <g data-v-0dd9719b="" fill="#333333" class="icon-text-wrapper icon-svg-group iconsvg" transform="translate(47.594993591308594,96.79390716552734)"><g class="iconsvg-imagesvg" transform="translate(0,0)"><g><rect fill="#333333" fill-opacity="0" stroke-width="2" x="0" y="0" width="60" height="56.4121850319669" class="image-rect"></rect> <svg x="0" y="0" width="60" height="56.4121850319669" filtersec="colorsb739239078" class="image-svg-svg primary" style="overflow: visible;"><svg xmlns="http://www.w3.org/2000/svg" viewBox="0 0 106.36000061035156 100"><g><g><path fill="#02035e" d="M31.46 8.31L0 0v100l31.46-8.31 11.97-3.17V11.48L31.46 8.31z"></path><path fill="#00b0d8" opacity=".8" d="M62.93 8.31L31.46 0v100l31.47-8.31 11.96-3.17V11.48L62.93 8.31z"></path><path fill="#00b0d8" opacity=".5" d="M62.93 0v100l43.43-11.48V11.48L62.93 0z"></path></g></g></svg></svg> <!----></g></g> <g transform="translate(67,3.5098419189453125)"><g data-gra="path-name" fill-rule="" class="tp-name iconsvg-namesvg" transform="translate(0,0)"><g transform="scale(1)"><g><path d="M25.92-8.14L20.02-8.14 20.02-4.39 26.17-4.39 28.33-6.95Q27.32-6.7 26.64-6.7L26.64-6.7 25.92-6.7 25.92-8.14ZM9.94-13L9.94-9.14 15.7-9.14 15.7-13 9.94-13ZM15.7-13.97L15.7-17.68 9.94-17.68 9.94-13.97 15.7-13.97ZM25.92-13.97L25.92-17.68 20.02-17.68 20.02-13.97 25.92-13.97ZM20.02-9.14L25.92-9.14 25.92-13 20.02-13 20.02-9.14ZM20.02 0.79L34.88 0.79 34.88 1.84Q34.88 1.84 1.44 1.84L1.44 1.84 1.15 0.79 15.7 0.79 15.7-3.35 4.32-3.35 4-4.39 15.7-4.39 15.7-8.14 9.94-8.14 9.94-7.34Q9.94-7.02 8.71-6.52L8.71-6.52Q7.52-6.01 6.34-6.01L6.34-6.01 5.69-6.01 5.69-20.48 10.19-18.68 15.7-18.68 15.7-22 2.09-22 1.8-22.97 15.7-22.97 15.7-25.88Q9.54-25.56 4-25.6L4-25.6 3.92-26.21Q9.83-26.82 16.49-28.12L16.49-28.12Q23.18-29.41 27.11-30.67L27.11-30.67 28.48-26.96Q24.77-26.57 20.02-26.17L20.02-26.17 20.02-22.97 34.24-22.97 34.24-22 20.02-22 20.02-18.68 30.24-18.68 30.24-7.81Q30.17-7.52 28.55-7.02L28.55-7.02Q30.89-5.36 32.58-3.92L32.58-3.92Q32.44-3.35 31.54-3.35L31.54-3.35 20.02-3.35 20.02 0.79ZM71.1-23.87L44.75-23.87 44.75-15.48Q44.75-13.25 44.64-11.63L44.64-11.63Q44.57-10.01 44.14-7.7L44.14-7.7Q43.7-5.44 42.95-3.67 42.19-1.91 40.72 0L40.72 0Q39.28 1.91 37.22 3.35L37.22 3.35 36.86 3.06Q39.2-0.54 39.92-5 40.64-9.47 40.64-15.48L40.64-15.48 40.64-26.6 45.4-24.88 56.09-24.88Q55.58-24.98 54.97-25.31L54.97-25.31Q54.65-26.6 53.71-28.04 52.78-29.48 51.77-30.46L51.77-30.46 52.02-30.67Q57.06-30.53 58.39-28.22L58.39-28.22Q59.18-26.82 58.25-25.63L58.25-25.63Q57.74-25.02 56.95-24.88L56.95-24.88 71.1-24.88 71.1-23.87ZM69.8-15.26L69.8-14.26 58-14.26Q60.8-4.75 71.06-1.62L71.06-1.62 70.99-1.15Q67.86 0.29 67.5 3.06L67.5 3.06Q60.08-1.44 57.6-12.64L57.6-12.64Q56.16-7.02 52.45-3.06L52.45-3.06Q48.78 0.86 41.87 3.13L41.87 3.13 41.58 2.74Q51.7-2.66 53.68-14.26L53.68-14.26 45.94-14.26 45.65-15.26 53.82-15.26Q54.32-18.94 54.22-23.18L54.22-23.18 58.86-22.57Q58.61-17.6 58.18-15.26L58.18-15.26 69.8-15.26ZM86.54-30.31L86.54-30.31 86.8-30.53Q91.8-30.46 93.13-28.19L93.13-28.19Q93.92-26.78 92.92-25.49 91.91-24.19 90.25-24.62L90.25-24.62Q89.57-24.77 88.96-25.24L88.96-25.24Q88.92-26.6 88.24-28.01L88.24-28.01Q87.59-29.41 86.54-30.31ZM78.77-24.48L105.55-24.48 105.55-22.61Q103.43-20.34 100.73-18.79L100.73-18.79Q100.8-20.92 101.05-23.47L101.05-23.47 78.95-23.47Q79.16-21.53 78.62-20.12 78.08-18.72 77.04-18.07L77.04-18.07Q76.14-17.42 74.88-17.75L74.88-17.75Q73.66-18.11 73.22-19.22L73.22-19.22Q72.72-21.35 74.92-22.46L74.92-22.46Q76-23 76.82-24.19L76.82-24.19Q77.69-25.38 77.65-26.64L77.65-26.64 78.12-26.64Q78.55-25.49 78.77-24.48L78.77-24.48ZM100.4-19.08L100.4-19.08 101.27-18.32Q101.12-17.75 100.26-17.75L100.26-17.75 92.12-17.75 92.12-11.74 106.49-11.74 106.49-10.73 92.12-10.73 92.12-2.12Q92.12 0.36 90.94 1.66 89.75 2.95 86.18 3.24L86.18 3.24Q86.08 0.97 85.18 0.11L85.18 0.11Q84.1-0.97 81.43-1.4L81.43-1.4 81.43-1.87Q86-1.58 86.94-1.58L86.94-1.58Q87.77-1.58 87.77-2.27L87.77-2.27 87.77-10.73 73.91-10.73 73.62-11.74 87.77-11.74 87.77-17.75 79.02-17.75 78.73-18.76 94.93-18.76 97.16-21.6Q98.89-20.3 100.4-19.08ZM115.99-21.17L115.99-21.17 115.99 1.94Q115.96 2.23 114.88 2.66L114.88 2.66Q113.83 3.1 112.79 3.1L112.79 3.1 112.03 3.1 112.03-15.16Q110.74-13.39 109.15-11.81L109.15-11.81 108.68-12.1Q110.38-15.59 111.82-20.59 113.26-25.6 113.94-30.6L113.94-30.6 118.22-28.98Q117.9-27.11 117.18-25.02L117.18-25.02Q116.5-23.18 115.99-21.17ZM121.07-18.5L121.07-18.5 121.39-18.72Q125.28-18.07 125.89-16.16L125.89-16.16Q126.25-14.98 125.21-14.18L125.21-14.18Q124.06-13.32 122.72-14.22L122.72-14.22Q122.54-14.33 122.4-14.47L122.4-14.47Q122.47-16.7 121.07-18.5ZM123.3-9.5L129.64-9.5 129.64-7.99Q129.46-3.42 128.99-1.4L128.99-1.4Q128.56 0.61 127.48 1.37L127.48 1.37Q126.22 2.38 123.98 2.38L123.98 2.38Q123.98 0.68 123.52 0.07L123.52 0.07Q122.87-0.61 121.5-0.94L121.5-0.94 121.5-1.44Q121.79-1.44 122.83-1.37 123.88-1.3 124.2-1.3L124.2-1.3Q124.85-1.3 125.14-1.58L125.14-1.58Q125.93-2.27 126.18-8.46L126.18-8.46 123.12-8.46Q121.64-0.86 116.46 3.13L116.46 3.13 116.17 2.74Q119.84-2.74 119.66-12.78L119.66-12.78 116.75-12.78 116.46-13.82 131.51-13.82 131.51-12.78 123.66-12.78Q123.59-11.66 123.3-9.5L123.3-9.5ZM137.48-20.38L137.48-20.38 133.96-20.38Q133.81-20.05 133.49-19.44L133.49-19.44Q133.2-18.86 133.09-18.68L133.09-18.68Q133.85-13.43 135.68-9.32L135.68-9.32Q137.2-13.93 137.48-20.38ZM143.17-21.38L143.17-20.38 141.3-20.38Q140.47-11.45 137.48-5.98L137.48-5.98Q139.68-2.56 143.1-0.29L143.1-0.29 142.99 0.07Q140.36 0.65 139.61 3.2L139.61 3.2Q137.2 0.79 135.54-3.1L135.54-3.1Q132.48 0.83 127.73 3.28L127.73 3.28 127.44 2.88Q132.01-0.83 134.46-6.12L134.46-6.12Q133.06-10.8 132.52-17.71L132.52-17.71Q131.54-16.2 130.57-15.05L130.57-15.05 130.07-15.3Q132.23-22.07 132.7-30.6L132.7-30.6 136.8-29.56Q135.83-24.62 134.42-21.38L134.42-21.38 143.17-21.38ZM117.32-24.01L117.11-24.8 121.86-25.02 121.86-30.31 125.46-29.92 125.46-25.02 131.47-25.02 131.47-24.01 125.46-24.01 125.46-19.94 130.64-19.94 130.64-18.9 118.26-18.9 117.97-19.94 121.86-19.94 121.86-24.01 117.32-24.01ZM172.08-14.36L172.08-14.36 175.32-10.91Q170.6-8.39 167.65-7.31L167.65-7.31Q171.54-3.28 178.96-1.3L178.96-1.3 178.88-0.9Q176.15-0.32 175.14 2.77L175.14 2.77Q171.65 1.12 169.27-1.04L169.27-1.04Q166.93-3.2 165.28-6.59L165.28-6.59Q163.66-10.01 162.86-14.8L162.86-14.8 159.66-14.8 159.66-2.45Q161.57-2.77 165.82-3.49L165.82-3.49 165.92-3.1Q161.57-0.36 156.78 2.05L156.78 2.05Q156.2 2.88 155.56 3.13L155.56 3.13 153.5-1.62Q154.73-2.16 155.09-2.56L155.09-2.56Q155.48-2.95 155.48-3.53L155.48-3.53 155.48-14.8 152.78-14.8Q151.99-2.66 145.19 3.17L145.19 3.17 144.79 2.95Q146.09 0.54 146.92-2.27L146.92-2.27Q147.78-5.08 148.14-8.17 148.5-11.27 148.61-13.68 148.72-16.09 148.72-19.37L148.72-19.37 148.72-29.38 153.54-27.65 178.63-27.65 178.63-26.64 152.89-26.64 152.89-21.82 175.36-21.82 175.36-20.77 152.89-20.77 152.89-19.37Q152.89-17.06 152.82-15.8L152.82-15.8 178.31-15.8 178.31-14.8 163.51-14.8Q164.56-10.87 166.97-8.06L166.97-8.06Q170.14-11.52 172.08-14.36Z" transform="translate(-1.149999976158142, 30.670000076293945)"></path></g> <!----> <!----> <!----> <!----> <!----> <!----> <!----></g></g> <g data-gra="path-slogan" fill-rule="" class="tp-slogan iconsvg-slogansvg" fill="#333333" transform="translate(16.510009765625,40.02000045776367)"><!----> <!----> <g transform="scale(1, 1)"><g transform="scale(1)"><path d="M8.06-6.05L8.06-6.05L6.94-6.05Q6.52-7.78 4.55-7.83L4.55-7.83Q1.83-7.69 1.73-4.36L1.73-4.36Q1.73-0.80 4.59-0.80L4.59-0.80Q6.56-0.84 7.03-3.19L7.03-3.19L8.16-3.19Q7.64 0.05 4.36 0.14L4.36 0.14Q0.61 0 0.52-4.31L0.52-4.31Q0.70-8.63 4.55-8.81L4.55-8.81Q7.59-8.72 8.06-6.05ZM10.69-5.06L15.19-5.06L15.19-8.58L16.36-8.58L16.36 0L15.19 0L15.19-3.98L10.69-3.98L10.69 0L9.52 0L9.52-8.58L10.69-8.58L10.69-5.06ZM24.94-4.27L24.94-4.27Q24.75-7.64 21.94-7.83L21.94-7.83Q19.08-7.69 18.94-4.27L18.94-4.27Q19.08-0.94 21.94-0.80L21.94-0.80Q24.75-0.98 24.94-4.27ZM26.11-4.27L26.11-4.27Q25.83 0 21.94 0.14L21.94 0.14Q18 0 17.72-4.27L17.72-4.27Q17.95-8.72 21.94-8.81L21.94-8.81Q25.83-8.67 26.11-4.27ZM28.88-8.58L33.19-1.64L33.19-8.58L34.31-8.58L34.31 0L33 0L28.64-6.94L28.59-6.94L28.59 0L27.47 0L27.47-8.58L28.88-8.58ZM42.52-3.61L39.89-3.61L39.89-4.59L43.64-4.59L43.64 0L42.89 0L42.61-1.08Q41.63 0.09 39.80 0.14L39.80 0.14Q38.06 0.14 37.13-0.75L37.13-0.75Q35.72-2.06 35.77-4.36L35.77-4.36Q36.09-8.63 39.84-8.81L39.84-8.81Q43.03-8.63 43.50-6L43.50-6L42.38-6Q41.91-7.78 39.80-7.83L39.80-7.83Q37.13-7.64 36.98-4.31L36.98-4.31Q36.98-0.75 39.84-0.75L39.84-0.75Q40.88-0.75 41.63-1.31L41.63-1.31Q42.56-2.06 42.52-3.61L42.52-3.61ZM50.44-1.08L49.55-1.78L50.16-2.48L51.23-1.64Q52.22-2.63 52.22-4.27L52.22-4.27Q52.03-7.64 49.22-7.83L49.22-7.83Q46.36-7.69 46.22-4.27L46.22-4.27Q46.36-0.94 49.22-0.80L49.22-0.80Q49.92-0.80 50.44-1.08L50.44-1.08ZM52.17-0.94L53.30-0.05L52.73 0.56L51.42-0.33Q50.58 0.14 49.22 0.14L49.22 0.14Q45.28 0 45-4.27L45-4.27Q45.23-8.72 49.22-8.81L49.22-8.81Q53.11-8.67 53.39-4.27L53.39-4.27Q53.34-2.20 52.17-0.94L52.17-0.94ZM54.94-8.58L56.11-8.58L56.11 0L54.94 0L54.94-8.58ZM59.48-8.58L63.80-1.64L63.80-8.58L64.92-8.58L64.92 0L63.61 0L59.25-6.94L59.20-6.94L59.20 0L58.08 0L58.08-8.58L59.48-8.58ZM73.13-3.61L70.50-3.61L70.50-4.59L74.25-4.59L74.25 0L73.50 0L73.22-1.08Q72.23 0.09 70.41 0.14L70.41 0.14Q68.67 0.14 67.73-0.75L67.73-0.75Q66.33-2.06 66.38-4.36L66.38-4.36Q66.70-8.63 70.45-8.81L70.45-8.81Q73.64-8.63 74.11-6L74.11-6L72.98-6Q72.52-7.78 70.41-7.83L70.41-7.83Q67.73-7.64 67.59-4.31L67.59-4.31Q67.59-0.75 70.45-0.75L70.45-0.75Q71.48-0.75 72.23-1.31L72.23-1.31Q73.17-2.06 73.13-3.61L73.13-3.61ZM86.30-8.58L83.06-3.47L83.06 0L81.89 0L81.89-3.47L78.66-8.58L80.02-8.58L82.45-4.45L84.94-8.58L86.30-8.58ZM93-3.19L93-8.58L94.17-8.58L94.17-3.05Q94.03 0.05 90.66 0.14L90.66 0.14Q87.52 0.05 87.38-2.86L87.38-2.86L87.38-8.58L88.55-8.58L88.55-3.19Q88.59-0.84 90.70-0.80L90.70-0.80Q93-0.84 93-3.19L93-3.19ZM101.63 0L100.78-2.48L97.31-2.48L96.42 0L95.25 0L98.48-8.58L99.80-8.58L102.89 0L101.63 0ZM99.05-7.31L97.69-3.52L100.36-3.52L99.09-7.31L99.05-7.31ZM110.72-4.27L110.72-4.27Q110.53-7.64 107.72-7.83L107.72-7.83Q104.86-7.69 104.72-4.27L104.72-4.27Q104.86-0.94 107.72-0.80L107.72-0.80Q110.53-0.98 110.72-4.27ZM111.89-4.27L111.89-4.27Q111.61 0 107.72 0.14L107.72 0.14Q103.78 0 103.50-4.27L103.50-4.27Q103.73-8.72 107.72-8.81L107.72-8.81Q111.61-8.67 111.89-4.27ZM120.42-6.05L120.42-6.05L119.30-6.05Q118.88-7.78 116.91-7.83L116.91-7.83Q114.19-7.69 114.09-4.36L114.09-4.36Q114.09-0.80 116.95-0.80L116.95-0.80Q118.92-0.84 119.39-3.19L119.39-3.19L120.52-3.19Q120 0.05 116.72 0.14L116.72 0.14Q112.97 0 112.88-4.31L112.88-4.31Q113.06-8.63 116.91-8.81L116.91-8.81Q119.95-8.72 120.42-6.05ZM123.05-5.06L127.55-5.06L127.55-8.58L128.72-8.58L128.72 0L127.55 0L127.55-3.98L123.05-3.98L123.05 0L121.88 0L121.88-8.58L123.05-8.58L123.05-5.06ZM131.81-1.03L136.97-1.03L136.97 0L130.64 0L130.64-8.58L136.88-8.58L136.88-7.59L131.81-7.59L131.81-4.92L136.50-4.92L136.50-3.89L131.81-3.89L131.81-1.03ZM139.88-8.58L144.19-1.64L144.19-8.58L145.31-8.58L145.31 0L144 0L139.64-6.94L139.59-6.94L139.59 0L138.47 0L138.47-8.58L139.88-8.58Z" transform="translate(-0.515625, 8.8125)"></path></g></g></g></g></g><defs v-gra="od"></defs></svg>